<!DOCTYPE svg PUBLIC "-//W3C//DTD SVG 20010904//EN" "http://www.w3.org/TR/2001/REC-SVG-20010904/DTD/svg10.dtd">
<svg version="1.0" xmlns="http://www.w3.org/2000/svg" width="351px" height="350px" viewBox="0 0 3510 3500" preserveAspectRatio="xMidYMid meet">
<g id="layer101" fill="#5e2d5b" stroke="none">
 <path d="M2625 2811 c-52 -13 -68 -30 -135 -144 -49 -84 -87 -133 -155 -201 l-90 -90 -135 -1 c-153 0 -203 -13 -284 -72 -34 -24 -55 -50 -73 -89 l-24 -54 -68 0 c-84 0 -155 -21 -210 -61 -42 -30 -80 -94 -81 -134 0 -11 -13 -27 -29 -37 -45 -25 -66 -73 -52 -118 6 -21 11 -48 11 -61 0 -39 -24 -4 -55 81 -15 41 -31 79 -35 83 -9 10 -10 9 -60 -258 -41 -215 -46 -233 -54 -224 -3 2 -26 156 -52 342 -26 185 -50 337 -54 337 -4 0 -31 -73 -59 -162 -29 -90 -58 -181 -65 -203 l-12 -39 -40 107 c-21 59 -42 107 -45 107 -3 0 -20 -78 -39 -172 -54 -284 -67 -344 -73 -328 -3 8 -24 151 -47 317 -50 366 -51 373 -59 373 -4 0 -31 -78 -61 -172 -76 -244 -71 -238 -107 -142 -17 43 -33 89 -37 102 -12 37 -21 25 -34 -45 -74 -392 -86 -447 -94 -418 -4 17 -24 147 -44 290 -19 143 -40 265 -46 272 -29 36 -36 -11 -18 -121 5 -34 31 -209 56 -391 25 -181 47 -331 49 -333 6 -6 13 27 55 248 52 277 70 363 73 366 2 2 18 -37 36 -86 18 -50 37 -90 41 -90 4 0 11 12 14 28 14 56 100 312 104 308 3 -4 111 -755 112 -780 0 -33 15 33 66 299 31 165 60 304 64 308 4 5 22 -33 40 -82 18 -50 34 -91 36 -91 2 0 29 79 60 176 31 96 57 174 59 172 2 -2 27 -168 55 -368 28 -201 53 -376 57 -390 l6 -25 7 25 c4 14 31 152 60 308 30 155 57 282 60 282 3 0 14 -25 25 -55 10 -30 22 -55 27 -55 4 0 8 -8 8 -18 0 -51 33 -125 75 -169 30 -31 45 -55 45 -73 0 -33 49 -111 86 -137 39 -28 101 -53 131 -53 13 0 26 -7 30 -18 35 -93 193 -168 304 -143 39 9 50 7 97 -16 48 -23 57 -25 92 -14 36 11 43 10 71 -11 41 -31 157 -33 206 -4 28 18 39 18 95 9 180 -32 449 91 529 241 13 26 30 46 37 46 44 0 112 76 131 147 8 31 18 44 41 53 40 16 70 56 70 90 0 15 7 30 15 33 18 7 55 88 55 120 0 13 9 32 20 42 25 23 43 110 31 152 -5 18 -7 66 -4 106 6 81 -7 120 -51 155 -14 10 -28 30 -31 45 -10 37 -47 67 -91 73 -111 15 -104 11 -104 57 0 56 -41 138 -87 176 -44 37 -116 55 -191 49 -35 -3 -65 0 -81 8 -14 8 -41 14 -58 14 -39 0 -41 11 -13 90 29 83 27 97 -17 109 -42 12 -45 12 -88 2z"/>
 </g>
<g id="layer102" fill="#a189b9" stroke="none">
 <path d="M2627 2773 c-21 -3 -35 -17 -55 -50 -82 -140 -164 -254 -200 -278 -37 -24 -82 -75 -82 -92 0 -19 68 -45 99 -38 25 5 32 13 37 40 6 32 36 75 53 75 5 0 14 13 19 28 15 42 65 96 117 123 41 22 46 29 66 91 30 99 23 113 -54 101z"/>
 <path d="M2645 2546 c-65 -30 -105 -76 -105 -122 0 -29 -3 -34 -23 -34 -27 0 -47 -17 -47 -41 0 -15 22 -17 258 -15 141 0 287 -3 325 -7 l67 -9 0 35 c0 52 -19 98 -57 138 -45 48 -102 64 -192 55 -54 -5 -71 -3 -81 9 -19 22 -88 18 -145 -9z"/>
 <path d="M1963 2325 c-101 -28 -165 -84 -186 -162 l-11 -43 -81 0 c-95 0 -162 -17 -210 -55 -41 -31 -54 -52 -63 -107 -6 -32 -14 -45 -37 -58 -17 -9 -37 -28 -45 -43 -13 -24 -13 -28 8 -57 l23 -31 -20 -43 c-40 -82 -22 -168 50 -239 38 -36 49 -54 49 -78 0 -81 99 -169 189 -169 32 0 41 -4 46 -22 24 -78 126 -142 226 -142 36 -1 65 5 82 17 27 18 28 18 52 -11 28 -33 73 -46 110 -32 33 13 32 36 -4 54 -15 8 -43 32 -61 53 l-34 38 -82 -3 c-72 -4 -90 -1 -141 22 -35 16 -66 39 -78 56 -15 22 -28 30 -51 30 -70 0 -164 94 -164 164 0 19 -9 29 -35 42 -67 32 -96 105 -69 176 19 50 20 69 6 121 -19 70 21 124 103 141 19 4 36 18 47 37 20 34 71 59 120 59 48 0 306 -90 372 -130 32 -19 76 -55 99 -80 41 -44 42 -44 110 -45 64 0 71 -2 97 -31 15 -17 29 -37 32 -45 3 -10 13 -9 46 4 53 21 90 21 141 1 34 -13 71 -49 71 -69 0 -12 -34 -4 -58 14 -62 43 -118 39 -179 -14 l-41 -35 -7 42 c-9 51 -52 98 -90 98 -14 0 -42 -7 -62 -15 -47 -20 -50 -19 -57 10 -8 31 -63 95 -82 95 -9 0 -14 -12 -14 -34 0 -19 -5 -47 -11 -63 -20 -54 -92 -113 -139 -113 -32 0 -24 29 13 45 58 24 97 80 97 140 0 51 -15 74 -63 96 -65 29 -74 26 -86 -32 -20 -92 -85 -149 -170 -149 -34 0 -41 3 -41 20 0 16 7 20 31 20 78 0 139 65 139 148 l0 39 -74 22 c-102 30 -156 17 -156 -40 0 -26 -3 -29 -32 -29 -18 0 -52 -9 -75 -20 -37 -17 -43 -23 -43 -51 0 -17 9 -48 21 -69 l21 -37 -26 -26 c-28 -28 -36 -90 -16 -128 13 -24 61 -49 96 -49 21 0 25 -3 19 -17 -17 -41 -16 -54 5 -90 29 -53 76 -83 128 -83 32 0 44 -5 49 -17 30 -86 215 -126 280 -60 24 23 25 29 15 53 -14 29 -17 29 -99 -7 -29 -13 -55 -20 -59 -17 -10 11 7 48 22 48 17 0 90 36 98 48 3 5 3 25 -1 45 l-6 37 -67 -6 c-58 -6 -74 -3 -114 17 -38 19 -50 21 -64 11 -50 -35 -75 -44 -83 -30 -14 21 -11 26 20 42 15 8 34 29 41 47 13 30 12 33 -14 55 -15 13 -38 24 -52 24 -17 0 -24 5 -24 20 0 16 7 20 34 20 44 0 81 -30 111 -91 50 -98 132 -105 246 -20 l32 24 -7 -29 c-17 -77 -17 -95 -2 -148 9 -31 30 -71 46 -90 17 -18 30 -38 30 -44 0 -18 -18 -23 -39 -10 -56 35 -24 -63 35 -107 29 -21 44 -42 52 -70 15 -57 56 -79 129 -72 37 4 65 14 89 32 31 24 36 25 61 12 48 -24 81 -28 150 -17 141 23 306 112 362 197 17 26 31 57 31 70 0 20 5 23 36 23 29 0 43 7 70 37 37 41 57 94 48 130 -6 21 -3 23 28 23 21 0 43 8 57 21 19 18 22 28 17 60 -5 34 -4 39 13 39 29 0 51 38 51 88 0 29 5 44 15 49 40 15 63 108 40 157 -13 26 -14 39 -6 55 16 28 14 107 -3 140 -8 15 -26 32 -40 39 -15 6 -26 20 -26 31 0 10 -9 29 -19 42 -17 22 -28 24 -108 26 -48 1 -106 6 -128 12 -99 27 -544 21 -678 -9 -32 -7 -47 -3 -108 28 -65 33 -78 37 -167 39 -63 2 -116 -2 -149 -12z m225 -77 c15 -7 34 -18 43 -25 14 -11 28 -12 81 -2 92 17 164 5 234 -37 34 -21 67 -34 79 -31 11 3 47 12 80 21 123 33 292 14 351 -41 14 -13 37 -23 55 -23 l29 0 0 -70 0 -70 31 0 c35 0 109 -20 109 -29 -1 -25 -19 -32 -56 -22 -69 19 -90 15 -123 -28 -17 -21 -31 -44 -31 -51 0 -7 16 -41 35 -76 51 -92 44 -143 -26 -179 -21 -11 -29 -23 -29 -43 0 -36 -39 -98 -76 -122 -19 -13 -46 -20 -80 -20 -44 0 -54 -4 -84 -35 -71 -73 -199 -72 -253 2 -18 23 -18 25 -1 37 14 11 16 23 11 75 -7 68 -2 73 43 39 19 -14 45 -21 75 -22 39 -1 51 4 69 25 13 15 26 45 29 67 8 46 31 60 58 36 25 -23 25 -54 0 -54 -13 0 -21 -9 -26 -29 -3 -15 -20 -41 -36 -57 -27 -26 -37 -29 -94 -29 l-63 0 -6 -39 c-8 -46 -1 -55 47 -63 66 -10 147 46 147 102 0 19 10 18 34 0 11 -8 32 -15 47 -15 68 0 114 50 114 122 0 45 1 47 33 53 19 3 39 16 49 32 17 25 16 28 -18 92 -23 43 -48 74 -72 90 -20 13 -37 31 -37 39 0 15 -35 61 -95 124 -19 20 -35 44 -35 52 0 23 33 20 48 -4 7 -11 23 -20 37 -20 20 0 25 -5 25 -25 0 -13 14 -40 30 -58 17 -19 30 -40 30 -46 0 -18 35 -13 54 8 20 22 46 102 46 143 0 23 -4 28 -25 28 -13 0 -28 6 -32 14 -4 8 -26 24 -48 37 -35 21 -53 24 -145 24 -112 0 -185 -17 -234 -56 l-24 -19 -22 34 c-42 69 -153 99 -264 71 -66 -17 -68 -17 -89 3 -12 11 -32 25 -44 31 -32 16 -129 14 -164 -5 -24 -12 -34 -13 -45 -3 -21 17 -1 36 55 54 49 16 122 12 169 -7z m-57 -161 c29 -20 44 -23 100 -19 62 4 68 2 100 -26 33 -29 39 -30 95 -25 45 4 68 1 93 -11 23 -12 44 -15 75 -11 54 8 126 -20 151 -59 12 -18 26 -26 45 -26 75 0 180 -135 180 -232 0 -49 -31 -32 -46 25 -25 98 -103 176 -165 163 -26 -5 -30 -2 -43 28 -8 20 -27 39 -49 49 -47 23 -60 21 -96 -9 -17 -14 -31 -21 -31 -14 0 6 -11 22 -25 35 -31 32 -85 33 -128 3 -25 -18 -32 -19 -35 -7 -3 7 -20 29 -38 47 -37 37 -79 42 -125 15 -29 -17 -30 -17 -52 9 -43 51 -95 61 -168 32 -34 -14 -42 -15 -49 -3 -12 18 -4 28 34 45 51 22 138 18 177 -9z m135 -522 c3 -7 -6 -29 -20 -48 -36 -47 -36 -108 0 -136 15 -12 39 -21 54 -21 27 0 28 -2 23 -39 -6 -47 8 -76 48 -97 39 -20 72 -12 122 28 21 16 40 28 41 27 1 -2 8 -18 15 -36 37 -93 202 -97 281 -7 16 19 30 39 30 44 0 12 11 12 30 0 13 -8 13 -13 -3 -42 -59 -107 -229 -143 -332 -69 l-45 33 -45 -17 c-85 -33 -171 10 -182 90 -4 34 -11 44 -42 60 -76 41 -89 118 -34 203 28 43 49 53 59 27z"/>
 <path d="M490 1938 c-76 -244 -71 -238 -107 -142 -17 43 -33 89 -37 102 -12 37 -21 25 -34 -45 -74 -392 -86 -447 -94 -418 -4 17 -24 147 -44 290 -19 143 -40 265 -46 272 -29 36 -36 -11 -18 -121 5 -34 31 -209 56 -391 25 -181 47 -331 49 -333 6 -6 13 27 55 248 52 277 70 363 73 366 2 2 18 -37 36 -86 18 -50 37 -90 41 -90 4 0 11 12 14 28 14 56 100 312 104 308 3 -4 111 -755 112 -780 0 -33 15 33 66 299 31 165 60 304 64 308 4 5 22 -33 40 -82 18 -50 34 -91 36 -91 2 0 29 79 60 176 31 96 57 174 59 172 2 -2 27 -168 55 -368 28 -201 53 -376 57 -390 l6 -25 7 25 c4 14 31 152 60 308 30 155 57 282 60 282 3 0 14 -25 25 -55 10 -30 22 -55 26 -55 9 0 16 88 8 98 -3 4 -19 41 -34 82 -15 41 -31 79 -35 83 -9 10 -10 9 -60 -258 -41 -215 -46 -233 -54 -224 -3 2 -26 156 -52 342 -26 185 -50 337 -54 337 -4 0 -31 -73 -59 -162 -29 -90 -58 -181 -65 -203 l-12 -39 -40 107 c-21 59 -42 107 -45 107 -3 0 -20 -78 -39 -172 -54 -284 -67 -344 -73 -328 -3 8 -24 151 -47 317 -50 366 -51 373 -59 373 -4 0 -31 -78 -61 -172z"/>
 </g>

</svg>